# Blender v2.74 (sub 0) OBJ File: 'invader_two.blend'
# www.blender.org
o Cube
v 1.000000 -1.000000 -1.000000
v 1.000000 -1.000000 1.000000
v 1.000000 1.000000 -0.999999
v 0.999999 1.000000 1.000001
v 0.627893 -1.000000 -1.000000
v 0.627893 -1.000000 1.000000
v 0.627893 1.000000 -1.000000
v 0.627892 1.000000 1.000000
v 1.000000 -0.333333 -1.000000
v 1.000000 0.333333 -1.000000
v 1.000000 -0.333333 1.882089
v 1.000000 0.333333 1.882089
v 0.627893 -0.333333 -1.000000
v 0.627893 0.333333 -1.000000
v 0.627892 0.333333 1.882089
v 0.627892 -0.333333 1.882089
v 1.558035 -1.000000 -1.000000
v 1.558035 -1.000000 1.000000
v 1.558036 0.333333 -0.999999
v 1.558036 1.000000 -0.999999
v 1.558035 0.333333 1.882089
v 1.558035 1.000000 1.000001
v 1.558035 -0.333333 -1.000000
v 1.558035 -0.333333 1.882089
v 1.014077 -0.333334 2.590225
v 1.014076 0.333333 2.590225
v 0.726490 0.333333 2.354094
v 0.726491 -0.333334 2.354094
v 1.445359 -0.333334 2.944343
v 1.445358 0.333333 2.944343
v 0.534499 -0.333334 3.174306
v 0.534498 0.333333 3.174306
v 0.246912 0.333333 2.938174
v 0.246913 -0.333334 2.938174
v 0.965781 -0.333334 3.528424
v 0.965780 0.333333 3.528424
v 2.580207 -0.103164 -0.999999
v 2.580208 0.103164 -0.999999
v 2.580207 -0.103164 0.455066
v 2.580207 0.103164 0.455066
v -1.000000 -1.000000 -1.000000
v -1.000000 -1.000000 1.000000
v -1.000000 1.000000 -0.999999
v -0.999999 1.000000 1.000001
v -0.627893 -1.000000 -1.000000
v 0.000000 -1.000000 -1.000000
v -0.627893 -1.000000 1.000000
v 0.000000 -1.000000 1.000000
v -0.627893 1.000000 -1.000000
v 0.000000 1.000000 -1.000000
v -0.627892 1.000000 1.000000
v 0.000000 1.000000 1.000000
v -1.000000 -0.333333 -1.000000
v -1.000000 0.333333 -1.000000
v -1.000000 -0.333333 1.882089
v -1.000000 0.333333 1.882089
v -0.627893 -0.333333 -1.000000
v -0.627893 0.333333 -1.000000
v 0.000000 -0.333333 -1.000000
v 0.000000 0.333333 -1.000000
v -0.627892 0.333333 1.882089
v -0.627892 -0.333333 1.882089
v 0.000000 0.333333 1.000000
v 0.000000 -0.333333 1.000000
v -1.558035 -1.000000 -1.000000
v -1.558035 -1.000000 1.000000
v -1.558036 0.333333 -0.999999
v -1.558036 1.000000 -0.999999
v -1.558035 0.333333 1.882089
v -1.558035 1.000000 1.000001
v -1.558035 -0.333333 -1.000000
v -1.558035 -0.333333 1.882089
v -1.014077 -0.333334 2.590225
v -1.014076 0.333333 2.590225
v -0.726490 0.333333 2.354094
v -0.726491 -0.333334 2.354094
v -1.445359 -0.333334 2.944343
v -1.445358 0.333333 2.944343
v -0.534499 -0.333334 3.174306
v -0.534498 0.333333 3.174306
v -0.246912 0.333333 2.938174
v -0.246913 -0.333334 2.938174
v -0.965781 -0.333334 3.528424
v -0.965780 0.333333 3.528424
v -2.580207 -0.103164 -0.999999
v -2.580208 0.103164 -0.999999
v -2.580207 -0.103164 0.455066
v -2.580207 0.103164 0.455066
vt 0.919482 0.093983
vt 0.968583 0.093983
vt 0.968583 0.152644
vt 0.919481 0.211304
vt 0.886740 0.211304
vt 0.886740 0.152644
vt 0.831491 0.211304
vt 0.831491 0.152644
vt 0.443640 0.480598
vt 0.416909 0.468175
vt 0.452107 0.390005
vt 0.363329 0.464692
vt 0.362791 0.399981
vt 0.894552 0.414962
vt 0.894552 0.238981
vt 0.927294 0.238981
vt 0.839303 0.414962
vt 0.839303 0.238981
vt 0.443568 0.102037
vt 0.446233 0.266030
vt 0.416265 0.272089
vt 0.411950 0.102481
vt 0.361747 0.274951
vt 0.450048 0.350067
vt 0.362281 0.338882
vt 0.472139 0.339253
vt 0.523335 0.398539
vt 0.473675 0.400868
vt 0.476514 0.375768
vt 0.886740 0.093983
vt 0.831491 0.093983
vt 0.831491 0.035323
vt 0.886740 0.035323
vt 0.919482 0.152644
vt 0.486547 0.257810
vt 0.518808 0.339732
vt 0.479240 0.371601
vt 0.479601 0.368309
vt 0.616401 0.655841
vt 0.556884 0.677368
vt 0.492302 0.498816
vt 0.556300 0.110231
vt 0.674943 0.960941
vt 0.421346 0.960940
vt 0.546911 0.868747
vt 0.968583 0.211304
vt 0.927294 0.414962
vt 0.976396 0.238981
vt 0.919482 0.035323
vt 0.968583 0.035323
vt 0.495007 0.103752
vt 0.476498 0.370445
vt 0.477215 0.370392
vt 0.477431 0.369748
vt 0.477057 0.364586
vt 0.470047 0.377255
vt 0.470211 0.363418
vt 0.475875 0.370221
vt 0.476154 0.369397
vt 0.476682 0.369397
vt 0.674943 0.868747
vt 0.546911 0.850592
vt 0.674943 0.758399
vt 0.674943 0.850592
vt 0.392458 0.830340
vt 0.764884 0.889000
vt 0.694399 0.152644
vt 0.694399 0.093983
vt 0.743500 0.093983
vt 0.776242 0.152644
vt 0.776242 0.211304
vt 0.743500 0.211304
vt 0.273321 0.391498
vt 0.309815 0.469065
vt 0.283296 0.481930
vt 0.751313 0.238981
vt 0.784055 0.238981
vt 0.784055 0.414962
vt 0.277045 0.103430
vt 0.308666 0.103345
vt 0.307189 0.273001
vt 0.360310 0.103102
vt 0.274715 0.351531
vt 0.252447 0.341086
vt 0.202264 0.401216
vt 0.245882 0.373553
vt 0.248680 0.377673
vt 0.776242 0.093983
vt 0.776242 0.035323
vt 0.743500 0.152644
vt 0.205794 0.342350
vt 0.236679 0.259899
vt 0.277125 0.267444
vt 0.245466 0.370264
vt 0.113480 0.659990
vt 0.234949 0.500953
vt 0.164467 0.113510
vt 0.302183 0.758399
vt 0.302183 0.850592
vt 0.174151 0.850592
vt 0.694399 0.211304
vt 0.751313 0.414962
vt 0.702211 0.414962
vt 0.702211 0.238981
vt 0.251940 0.402720
vt 0.694399 0.035323
vt 0.743500 0.035323
vt 0.225643 0.106006
vt 0.247889 0.372309
vt 0.248608 0.372350
vt 0.247662 0.371668
vt 0.247950 0.366495
vt 0.255170 0.379051
vt 0.254778 0.365216
vt 0.248934 0.371295
vt 0.249228 0.372116
vt 0.248406 0.371304
vt 0.174151 0.868747
vt 0.302183 0.868747
vt 0.302183 0.960941
vt 0.019698 0.889000
vt 0.392125 0.830340
vt 0.976396 0.414962
vt 0.421346 0.758399
vt 0.392458 0.889000
vt 0.764884 0.830340
vt 0.173338 0.680527
vt 0.048587 0.758399
vt 0.048587 0.960941
vt 0.019698 0.830339
vt 0.392125 0.889000
vn 0.000000 0.000000 -1.000000
vn 0.000000 0.797800 0.602900
vn -0.000000 -0.000000 1.000000
vn 0.000000 1.000000 0.000000
vn 0.000000 -1.000000 0.000000
vn -0.646300 -0.608700 0.460100
vn -0.814700 0.000000 0.579900
vn 0.000000 -0.797800 0.602900
vn 0.994400 0.000000 0.105500
vn 1.000000 0.000000 0.000000
vn 0.219700 0.975600 0.000000
vn 0.772900 0.000000 0.634600
vn -0.978900 -0.000000 0.204500
vn -0.634600 -0.000000 0.772900
vn -0.772900 -0.000000 -0.634600
vn 0.219700 -0.975600 0.000000
vn 0.813000 0.000000 0.582300
vn 0.814700 0.000000 0.579900
vn -0.994400 0.000000 0.105500
vn -1.000000 0.000000 0.000000
vn -0.219700 0.975600 0.000000
vn -0.772900 0.000000 0.634600
vn 0.978900 -0.000000 0.204500
vn 0.634600 -0.000000 0.772900
vn 0.772900 -0.000000 -0.634600
vn -0.219700 -0.975600 0.000000
vn -0.813000 0.000000 0.582300
vn -0.646300 0.608700 0.460100
vn 0.646300 0.608700 0.460100
vn 0.646300 -0.608700 0.460100
s off
f 10/1/1 19/2/1 23/3/1
f 1/4/1 5/5/1 13/6/1
f 5/5/1 46/7/1 59/8/1
f 4/9/2 8/10/2 15/11/2
f 8/10/3 52/12/3 63/13/3
f 7/14/4 8/15/4 4/16/4
f 50/17/4 52/18/4 8/15/4
f 1/19/5 2/20/5 6/21/5
f 5/22/5 6/21/5 48/23/5
f 6/21/6 16/24/6 64/25/6
f 15/11/7 63/13/7 64/25/7
f 2/20/8 11/26/8 16/24/8
f 21/27/4 12/28/4 26/29/4
f 14/30/1 60/31/1 50/32/1
f 13/6/1 59/8/1 60/31/1
f 10/1/1 14/30/1 7/33/1
f 9/34/1 13/6/1 14/30/1
f 2/20/8 18/35/8 24/36/8
f 21/27/9 30/37/9 29/38/9
f 19/39/10 20/40/10 22/41/10
f 23/42/10 24/36/10 18/35/10
f 19/43/11 21/44/11 40/45/11
f 9/34/1 23/3/1 17/46/1
f 3/47/4 4/16/4 22/48/4
f 12/28/2 21/27/2 22/41/2
f 3/49/1 20/50/1 19/2/1
f 2/20/5 1/19/5 17/51/5
f 26/29/4 32/52/4 36/53/4
f 30/37/12 36/53/12 35/54/12
f 24/36/5 29/38/5 25/55/5
f 12/28/4 15/11/4 27/56/4
f 11/26/5 25/55/5 28/57/5
f 16/24/13 28/57/13 27/56/13
f 32/52/14 33/58/14 34/59/14
f 31/60/14 35/54/14 36/53/14
f 25/55/5 29/38/5 35/54/5
f 27/56/4 33/58/4 32/52/4
f 28/57/5 25/55/5 31/60/5
f 28/57/15 34/59/15 33/58/15
f 38/61/10 40/45/10 39/62/10
f 23/63/16 37/64/16 39/62/16
f 24/65/17 39/62/17 40/45/17
f 19/66/1 38/61/1 37/64/1
f 71/67/1 67/68/1 54/69/1
f 57/70/1 45/71/1 41/72/1
f 59/8/1 46/7/1 45/71/1
f 61/73/2 51/74/2 44/75/2
f 63/13/3 52/12/3 51/74/3
f 44/76/4 51/77/4 49/78/4
f 51/77/4 52/18/4 50/17/4
f 41/79/5 45/80/5 47/81/5
f 46/82/5 48/23/5 47/81/5
f 47/81/3 48/23/3 64/25/3
f 64/25/18 63/13/18 61/73/18
f 47/81/8 62/83/8 55/84/8
f 69/85/4 78/86/4 74/87/4
f 50/32/1 60/31/1 58/88/1
f 60/31/1 59/8/1 57/70/1
f 49/89/1 58/88/1 54/69/1
f 58/88/1 57/70/1 53/90/1
f 72/91/8 66/92/8 42/93/8
f 77/94/19 78/86/19 69/85/19
f 67/95/20 69/85/20 70/96/20
f 66/92/20 72/91/20 71/97/20
f 67/98/21 86/99/21 88/100/21
f 65/101/1 71/67/1 53/90/1
f 43/102/4 68/103/4 70/104/4
f 70/96/2 69/85/2 56/105/2
f 67/68/1 68/106/1 43/107/1
f 42/93/5 66/92/5 65/108/5
f 84/109/4 80/110/4 74/87/4
f 83/111/22 84/109/22 78/86/22
f 73/112/5 77/94/5 72/91/5
f 56/105/4 74/87/4 75/113/4
f 76/114/5 73/112/5 55/84/5
f 75/113/23 76/114/23 62/83/23
f 82/115/24 81/116/24 80/110/24
f 84/109/24 83/111/24 79/117/24
f 73/112/5 79/117/5 83/111/5
f 80/110/4 81/116/4 75/113/4
f 76/114/5 82/115/5 79/117/5
f 81/116/25 82/115/25 76/114/25
f 87/118/20 88/100/20 86/99/20
f 87/118/26 85/119/26 71/120/26
f 88/100/27 87/118/27 72/121/27
f 85/119/1 86/99/1 67/122/1
f 9/34/1 10/1/1 23/3/1
f 9/34/1 1/4/1 13/6/1
f 13/6/1 5/5/1 59/8/1
f 12/28/2 4/9/2 15/11/2
f 15/11/28 8/10/28 63/13/28
f 3/47/4 7/14/4 4/16/4
f 7/14/4 50/17/4 8/15/4
f 5/22/5 1/19/5 6/21/5
f 46/82/5 5/22/5 48/23/5
f 48/23/3 6/21/3 64/25/3
f 16/24/7 15/11/7 64/25/7
f 6/21/8 2/20/8 16/24/8
f 30/37/4 21/27/4 26/29/4
f 7/33/1 14/30/1 50/32/1
f 14/30/1 13/6/1 60/31/1
f 3/49/1 10/1/1 7/33/1
f 10/1/1 9/34/1 14/30/1
f 11/26/8 2/20/8 24/36/8
f 24/36/9 21/27/9 29/38/9
f 21/27/10 19/39/10 22/41/10
f 17/51/10 23/42/10 18/35/10
f 38/61/11 19/43/11 40/45/11
f 1/4/1 9/34/1 17/46/1
f 20/123/4 3/47/4 22/48/4
f 4/9/2 12/28/2 22/41/2
f 10/1/1 3/49/1 19/2/1
f 18/35/5 2/20/5 17/51/5
f 30/37/4 26/29/4 36/53/4
f 29/38/12 30/37/12 35/54/12
f 11/26/5 24/36/5 25/55/5
f 26/29/4 12/28/4 27/56/4
f 16/24/5 11/26/5 28/57/5
f 15/11/13 16/24/13 27/56/13
f 31/60/14 32/52/14 34/59/14
f 32/52/14 31/60/14 36/53/14
f 31/60/5 25/55/5 35/54/5
f 26/29/4 27/56/4 32/52/4
f 34/59/5 28/57/5 31/60/5
f 27/56/15 28/57/15 33/58/15
f 37/64/10 38/61/10 39/62/10
f 24/124/16 23/63/16 39/62/16
f 21/125/17 24/65/17 40/45/17
f 23/126/1 19/66/1 37/64/1
f 53/90/1 71/67/1 54/69/1
f 53/90/1 57/70/1 41/72/1
f 57/70/1 59/8/1 45/71/1
f 56/105/2 61/73/2 44/75/2
f 61/73/29 63/13/29 51/74/29
f 43/102/4 44/76/4 49/78/4
f 49/78/4 51/77/4 50/17/4
f 42/93/5 41/79/5 47/81/5
f 45/80/5 46/82/5 47/81/5
f 62/83/30 47/81/30 64/25/30
f 62/83/18 64/25/18 61/73/18
f 42/93/8 47/81/8 55/84/8
f 56/105/4 69/85/4 74/87/4
f 49/89/1 50/32/1 58/88/1
f 58/88/1 60/31/1 57/70/1
f 43/107/1 49/89/1 54/69/1
f 54/69/1 58/88/1 53/90/1
f 55/84/8 72/91/8 42/93/8
f 72/91/19 77/94/19 69/85/19
f 68/127/20 67/95/20 70/96/20
f 65/108/20 66/92/20 71/97/20
f 69/128/21 67/98/21 88/100/21
f 41/72/1 65/101/1 53/90/1
f 44/76/4 43/102/4 70/104/4
f 44/75/2 70/96/2 56/105/2
f 54/69/1 67/68/1 43/107/1
f 41/79/5 42/93/5 65/108/5
f 78/86/4 84/109/4 74/87/4
f 77/94/22 83/111/22 78/86/22
f 55/84/5 73/112/5 72/91/5
f 61/73/4 56/105/4 75/113/4
f 62/83/5 76/114/5 55/84/5
f 61/73/23 75/113/23 62/83/23
f 79/117/24 82/115/24 80/110/24
f 80/110/24 84/109/24 79/117/24
f 77/94/5 73/112/5 83/111/5
f 74/87/4 80/110/4 75/113/4
f 73/112/5 76/114/5 79/117/5
f 75/113/25 81/116/25 76/114/25
f 85/119/20 87/118/20 86/99/20
f 72/129/26 87/118/26 71/120/26
f 69/130/27 88/100/27 72/121/27
f 71/131/1 85/119/1 67/122/1
